<svg xmlns="http://www.w3.org/2000/svg" xmlns:xlink="http://www.w3.org/1999/xlink" width="723px" height="296px" version="1.1"><defs/><g transform="translate(0.5,0.5)"><rect x="511" y="4" width="210" height="240" fill="#ffffff" stroke="#000000" pointer-events="none"/><rect x="501" y="14" width="210" height="240" fill="#ffffff" stroke="#000000" pointer-events="none"/><rect x="491" y="24" width="210" height="240" fill="#ffffff" stroke="#000000" pointer-events="none"/><rect x="481" y="34" width="210" height="240" fill="#ffffff" stroke="#000000" pointer-events="none"/><rect x="471" y="44" width="210" height="240" fill="#ffffff" stroke="#000000" pointer-events="none"/><rect x="461" y="54" width="210" height="240" fill="#ffffff" stroke="#000000" pointer-events="none"/><rect x="486" y="144" width="165" height="110" fill="#ffffff" stroke="#000000" pointer-events="none"/><rect x="1" y="39" width="210" height="240" fill="#ffffff" stroke="#000000" pointer-events="none"/><path d="M 251 119 L 406 119 L 431 134 L 406 149 L 251 149 Z" fill="#ffffff" stroke="#000000" stroke-width="2" stroke-miterlimit="10" pointer-events="none"/><g fill="#000000" font-family="Helvetica" text-anchor="middle" font-size="12px"><text x="341" y="138">passwordless ssh</text></g><path d="M 66 149 L 116 149 L 146 179 L 146 249 L 66 249 L 66 149 Z" fill="#ffffff" stroke="#000000" stroke-miterlimit="10" pointer-events="none"/><path d="M 116 149 L 116 179 L 146 179" fill="none" stroke="#000000" stroke-miterlimit="10" pointer-events="none"/><g fill="#000000" font-family="Helvetica" text-anchor="middle" font-size="12px"><text x="106" y="224">target file</text></g><rect x="31" y="64" width="150" height="30" fill="#ffffff" stroke="#000000" pointer-events="none"/><g fill="#000000" font-family="Helvetica" text-anchor="middle" font-size="12px"><text x="106" y="83">yadtshell</text></g><rect x="491" y="94" width="150" height="30" fill="#ffffff" stroke="#000000" pointer-events="none"/><g fill="#000000" font-family="Helvetica" text-anchor="middle" font-size="12px"><text x="566" y="113">yadt minion</text></g><path d="M 106 94 L 106 149" fill="none" stroke="#000000" stroke-miterlimit="10" pointer-events="none"/><g fill="#000000" font-family="Helvetica" text-anchor="middle" font-size="11px"><rect fill="#ffffff" stroke="none" x="94" y="116" width="26" height="14" stroke-width="0"/><text x="106" y="125">uses</text></g><rect x="491" y="149" width="150" height="30" fill="#ffffff" stroke="#000000" pointer-events="none"/><g fill="#000000" font-family="Helvetica" text-anchor="middle" font-size="12px"><text x="566" y="168">frontend service</text></g><rect x="491" y="184" width="150" height="30" fill="#ffffff" stroke="#000000" pointer-events="none"/><g fill="#000000" font-family="Helvetica" text-anchor="middle" font-size="12px"><text x="566" y="203">middle service</text></g><rect x="491" y="219" width="150" height="30" fill="#ffffff" stroke="#000000" pointer-events="none"/><g fill="#000000" font-family="Helvetica" text-anchor="middle" font-size="12px"><text x="566" y="238">backend service</text></g><rect x="81" y="1" width="40" height="26" fill="none" stroke="none" pointer-events="none"/><g fill="#000000" font-family="Helvetica" font-size="12px"><text x="83" y="19">jumphost</text></g></g></svg>